<svg width="210" height="92" viewBox="0 0 210 92" fill="none" xmlns="http://www.w3.org/2000/svg">
<rect x="0.5" y="0.5" width="209" height="91" rx="3.5" stroke="#AFB1B8"/>
<path d="M101.977 22.9345H102.114C102.366 22.9345 102.64 22.9599 102.91 22.9828C104.103 23.067 105.287 23.2455 106.452 23.5168V20.6535C105.253 20.3526 104.03 20.1578 102.797 20.0712C102.329 20.0356 101.83 20.0127 101.319 20H100.892C98.4168 20.0093 95.9526 20.3271 93.5554 20.946C90.8252 21.6269 88.2046 22.6928 85.7715 24.1119V52.5086C88.1142 51.2357 90.607 50.2643 93.1912 49.6173C95.2315 49.0967 97.3174 48.7765 99.4193 48.6612H99.5028C99.8545 48.6434 100.206 48.6332 100.568 48.6306V45.7216C97.8366 45.7567 95.1192 46.1178 92.4727 46.7972C91.4937 47.0515 90.5476 47.3261 89.6597 47.6313L88.6478 47.9746V25.8334L89.0804 25.6249C92.3816 24.0595 95.9521 23.1486 99.5964 22.9421C99.6267 22.9399 99.6572 22.9399 99.6875 22.9421C100.09 22.9218 100.494 22.9116 100.892 22.9116H101.327H101.347C101.557 22.9167 101.767 22.9218 101.977 22.9345Z" fill="#AFB1B8"/>
<path d="M109.111 25.9326C108.446 25.9326 107.788 25.9097 107.153 25.8614C106.394 25.8054 105.615 25.7139 104.876 25.5893C104.426 25.513 103.983 25.4215 103.553 25.3223V53.3935C105.374 53.8443 107.244 54.0647 109.119 54.0496C111.593 54.0395 114.057 53.7227 116.455 53.1061C119.186 52.4243 121.807 51.3585 124.241 49.9402V22.0496C121.899 23.3218 119.407 24.294 116.824 24.9434C114.303 25.5908 111.713 25.9231 109.111 25.9326ZM120.335 26.4183L121.347 26.0775V48.2263L120.915 48.4348C119.255 49.2243 117.523 49.8469 115.741 50.2937C113.578 50.8533 111.355 51.1412 109.121 51.1506C108.453 51.1506 107.791 51.1227 107.148 51.0667L106.455 51.0057V48.3178V28.2288L107.262 28.2822C107.849 28.3204 108.456 28.3382 109.116 28.3382C111.952 28.3281 114.775 27.966 117.522 27.26C118.466 27.0108 119.404 26.7311 120.335 26.4183Z" fill="#AFB1B8"/>
<path d="M87.7373 62.2124C87.5918 62.0615 87.4164 61.943 87.2225 61.8646C87.0286 61.7862 86.8204 61.7496 86.6115 61.7572C86.3889 61.7542 86.1679 61.7957 85.9614 61.8793C85.772 61.9547 85.5999 62.068 85.4554 62.2124C85.3126 62.3572 85.2014 62.5304 85.1291 62.721C85.0498 62.9207 85.0103 63.1341 85.0127 63.3491V67.1431C85.0037 67.4104 85.0547 67.6764 85.162 67.9212C85.2516 68.1156 85.3808 68.2889 85.5415 68.4298C85.6931 68.5575 85.8711 68.6495 86.0626 68.6994C86.2471 68.7512 86.4377 68.7777 86.6292 68.7782C86.8405 68.7803 87.0497 68.7351 87.2414 68.646C87.4311 68.563 87.6029 68.4438 87.7474 68.295C87.8883 68.1476 88.0006 67.9752 88.0788 67.7864C88.1599 67.5951 88.2012 67.3892 88.2002 67.1812V66.7566H87.2085V67.0948C87.2115 67.2103 87.1917 67.3252 87.1504 67.433C87.1181 67.5137 87.0689 67.5866 87.0062 67.6466C86.9447 67.6962 86.8743 67.7334 86.7987 67.7559C86.7318 67.7782 86.6618 67.7902 86.5913 67.7915C86.5028 67.8018 86.4131 67.7885 86.3313 67.7527C86.2496 67.717 86.1787 67.6602 86.1258 67.5881C86.0323 67.4356 85.9865 67.2585 85.9943 67.0795V63.5423C85.9881 63.3462 86.0298 63.1515 86.1157 62.9753C86.1672 62.8952 86.24 62.8313 86.3259 62.7908C86.4118 62.7503 86.5072 62.7349 86.6014 62.7464C86.6869 62.7434 86.7718 62.7612 86.8489 62.7984C86.926 62.8356 86.993 62.8911 87.0441 62.96C87.1551 63.1057 87.2131 63.2852 87.2085 63.4686V63.7966H88.1901V63.4101C88.1921 63.1831 88.1509 62.9578 88.0686 62.7464C87.9954 62.5476 87.8826 62.3659 87.7373 62.2124Z" fill="#AFB1B8"/>
<path d="M93.6287 62.1691C93.3125 61.9021 92.9134 61.7546 92.5004 61.7521C92.2984 61.7529 92.0981 61.7891 91.9085 61.8589C91.7159 61.9279 91.5382 62.0332 91.3848 62.1691C91.2205 62.3168 91.0894 62.498 91.0003 62.7006C90.9004 62.9323 90.8512 63.183 90.8561 63.4355V67.0744C90.8493 67.3304 90.8985 67.5847 91.0003 67.8195C91.09 68.0151 91.2213 68.1887 91.3848 68.328C91.5364 68.4688 91.7144 68.5777 91.9085 68.6485C92.0981 68.7183 92.2984 68.7544 92.5004 68.7553C92.7024 68.7549 92.9028 68.7187 93.0924 68.6485C93.2897 68.5767 93.4717 68.468 93.6287 68.328C93.7869 68.1861 93.9143 68.013 94.0031 67.8195C94.1049 67.5847 94.1541 67.3304 94.1473 67.0744V63.4355C94.1521 63.183 94.103 62.9323 94.0031 62.7006C93.9148 62.5001 93.7875 62.3194 93.6287 62.1691ZM93.1657 67.0744C93.1741 67.1714 93.1607 67.269 93.1266 67.3601C93.0924 67.4512 93.0384 67.5334 92.9684 67.6008C92.8374 67.7106 92.6723 67.7708 92.5017 67.7708C92.3311 67.7708 92.1659 67.7106 92.0349 67.6008C91.965 67.5334 91.911 67.4512 91.8768 67.3601C91.8427 67.269 91.8293 67.1714 91.8376 67.0744V63.4355C91.8293 63.3385 91.8427 63.2409 91.8768 63.1498C91.911 63.0587 91.965 62.9764 92.0349 62.9091C92.1659 62.7993 92.3311 62.7391 92.5017 62.7391C92.6723 62.7391 92.8374 62.7993 92.9684 62.9091C93.0384 62.9764 93.0924 63.0587 93.1266 63.1498C93.1607 63.2409 93.1741 63.3385 93.1657 63.4355V67.0744Z" fill="#AFB1B8"/>
<path d="M101.368 68.6994V61.8107H100.414L99.1616 65.4572H99.1439L97.8816 61.8107H96.938V68.6994H97.9221V64.5087H97.9398L98.9036 67.4712H99.3944L100.366 64.5087H100.383V68.6994H101.368Z" fill="#AFB1B8"/>
<path d="M106.958 62.2937C106.807 62.1237 106.615 61.9943 106.402 61.9173C106.171 61.8424 105.93 61.8063 105.688 61.8105H104.226V68.6993H105.208V66.0089H105.714C106.02 66.0228 106.325 65.958 106.599 65.8207C106.822 65.6968 107.008 65.515 107.138 65.2943C107.251 65.1111 107.328 64.9071 107.363 64.6942C107.402 64.435 107.419 64.173 107.416 63.911C107.426 63.5802 107.393 63.2495 107.32 62.9269C107.254 62.6885 107.13 62.4706 106.958 62.2937ZM106.452 64.3941C106.448 64.5188 106.417 64.6412 106.361 64.7527C106.305 64.8586 106.216 64.9434 106.108 64.9942C105.963 65.0593 105.804 65.0889 105.645 65.0807H105.197V62.7387H105.703C105.856 62.7312 106.008 62.7609 106.146 62.8251C106.248 62.8834 106.328 62.9724 106.376 63.0794C106.43 63.2004 106.459 63.331 106.462 63.4634C106.462 63.6084 106.462 63.7609 106.462 63.9211C106.462 64.0813 106.472 64.2466 106.462 64.3941H106.452Z" fill="#AFB1B8"/>
<path d="M111.607 61.8107H110.803L109.285 68.6994H110.267L110.555 67.2194H111.893L112.182 68.6994H113.163L111.607 61.8107ZM110.702 66.2811L111.185 63.784H111.203L111.683 66.2811H110.702Z" fill="#AFB1B8"/>
<path d="M117.95 65.9607H117.932L116.449 61.8107H115.506V68.6994H116.487V64.557H116.508L118.008 68.6994H118.931V61.8107H117.95V65.9607Z" fill="#AFB1B8"/>
<path d="M123.948 61.8107L123.158 64.5494H123.138L122.349 61.8107H121.309L122.657 65.7878V68.6994H123.639V65.7878L124.987 61.8107H123.948Z" fill="#AFB1B8"/>
<path d="M85 70.6445H85.4731V71.9719H85.7943V70.6445H86.2649V70.3724H85V70.6445Z" fill="#AFB1B8"/>
<path d="M88.9767 70.3724L88.3569 71.9719H88.6984L88.83 71.6083H89.4675L89.6041 71.9719H89.9532L89.3182 70.3724H88.9767ZM88.9261 71.3387L89.1437 70.7462L89.3612 71.3387H88.9261Z" fill="#AFB1B8"/>
<path d="M92.9079 71.3821H93.2773V71.5881C93.1694 71.6746 93.0358 71.722 92.8978 71.7229C92.8333 71.7265 92.7689 71.7145 92.7099 71.688C92.6509 71.6614 92.5991 71.6211 92.5588 71.5703C92.474 71.4485 92.4322 71.3017 92.4399 71.1533C92.4399 70.7973 92.5942 70.6193 92.9003 70.6193C92.9809 70.6112 93.0617 70.6325 93.128 70.6791C93.1944 70.7257 93.2419 70.7947 93.2621 70.8735L93.5783 70.8125C93.51 70.4997 93.2849 70.3421 92.9003 70.3421C92.6947 70.3366 92.4947 70.4103 92.3413 70.5481C92.2607 70.6276 92.1983 70.7239 92.1586 70.8302C92.1188 70.9365 92.1026 71.0502 92.1111 71.1634C92.1017 71.3823 92.1749 71.5966 92.316 71.7636C92.3943 71.8444 92.4892 71.9071 92.594 71.9475C92.6988 71.9879 92.8111 72.0049 92.9231 71.9975C93.1734 72.0045 93.4165 71.9133 93.6011 71.7432V71.1126H92.9079V71.3821Z" fill="#AFB1B8"/>
<path d="M96.9224 70.3724H96.5986V71.9719H97.7193V71.6998H96.9224V70.3724Z" fill="#AFB1B8"/>
<path d="M100.317 70.3724H99.9937V71.9719H100.317V70.3724Z" fill="#AFB1B8"/>
<path d="M103.636 71.4405L102.981 70.3724H102.667V71.9719H102.969V70.9268L103.611 71.9719H103.932V70.3724H103.636V71.4405Z" fill="#AFB1B8"/>
<path d="M106.637 71.2675H107.434V70.9954H106.637V70.6445H107.494V70.3724H106.313V71.9719H107.527V71.6998H106.637V71.2675Z" fill="#AFB1B8"/>
<path d="M113.912 71.0031H113.282V70.3724H112.961V71.9719H113.282V71.2726H113.912V71.9719H114.233V70.3724H113.912V71.0031Z" fill="#AFB1B8"/>
<path d="M116.93 71.2675H117.73V70.9954H116.93V70.6445H117.79V70.3724H116.609V71.9719H117.821V71.6998H116.93V71.2675Z" fill="#AFB1B8"/>
<path d="M121.023 71.2676C121.302 71.2244 121.443 71.0769 121.443 70.8226C121.452 70.7546 121.441 70.6856 121.414 70.623C121.386 70.5603 121.342 70.5063 121.287 70.4666C121.142 70.3938 120.98 70.3614 120.819 70.3725H120.141V71.972H120.462V71.3032H120.525C120.594 71.299 120.662 71.3112 120.725 71.3388C120.772 71.3678 120.811 71.4079 120.839 71.4558L121.188 71.9644H121.572L121.378 71.6516C121.292 71.4972 121.17 71.3656 121.023 71.2676ZM120.7 71.0464H120.462V70.6446H120.715C120.825 70.6357 120.936 70.6486 121.041 70.6827C121.065 70.7034 121.083 70.7291 121.095 70.7579C121.107 70.7867 121.113 70.8179 121.112 70.8492C121.11 70.8804 121.102 70.911 121.087 70.9385C121.072 70.966 121.051 70.9899 121.026 71.0082C120.92 71.0406 120.81 71.0535 120.7 71.0464Z" fill="#AFB1B8"/>
<path d="M124.109 71.2675H124.906V70.9954H124.109V70.6445H124.97V70.3724H123.786V71.9719H125V71.6998H124.109V71.2675Z" fill="#AFB1B8"/>
</svg>
