<svg width="210" height="92" viewBox="0 0 210 92" fill="none" xmlns="http://www.w3.org/2000/svg">
<rect x="0.5" y="0.5" width="209" height="91" rx="3.5" stroke="#AFB1B8"/>
<path d="M105.74 44.3533C105.322 43.7431 105.122 43.022 105.17 42.2962V39.3135C105.17 38.3992 105.359 37.7044 105.737 37.2291C106.115 36.7537 106.765 36.517 107.686 36.5191C108.551 36.5191 109.165 36.7213 109.529 37.1259C109.925 37.6421 110.118 38.2733 110.074 38.91V39.6109H108.526V38.9009C108.531 38.6685 108.516 38.4361 108.481 38.2061C108.458 38.0488 108.38 37.9033 108.26 37.7934C108.101 37.675 107.9 37.6175 107.699 37.6326C107.487 37.6176 107.276 37.6782 107.109 37.8025C106.974 37.9243 106.884 38.0838 106.853 38.2576C106.808 38.5011 106.788 38.7479 106.792 38.995V42.6147C106.767 42.964 106.836 43.3134 106.99 43.6312C107.067 43.7387 107.174 43.824 107.299 43.8775C107.424 43.9311 107.563 43.9508 107.699 43.9346C107.897 43.9501 108.094 43.8912 108.247 43.7708C108.373 43.6523 108.454 43.4976 108.477 43.3308C108.514 43.0907 108.53 42.8482 108.526 42.6056V41.8714H110.074V42.5419C110.117 43.2056 109.929 43.8644 109.538 44.4171C109.183 44.86 108.577 45.0815 107.686 45.0815C106.795 45.0815 106.122 44.8449 105.74 44.3533Z" fill="#AFB1B8"/>
<path d="M112.186 44.3837C111.795 43.9194 111.599 43.2428 111.599 42.3477V39.2104C111.599 38.3244 111.795 37.6538 112.186 37.1987C112.577 36.7436 113.23 36.517 114.147 36.5191C115.057 36.5191 115.708 36.7456 116.099 37.1987C116.49 37.6538 116.688 38.3244 116.688 39.2104V42.3477C116.688 43.2337 116.49 43.9134 116.092 44.3806C115.695 44.8479 115.048 45.0815 114.147 45.0815C113.246 45.0815 112.58 44.8449 112.186 44.3837ZM114.868 43.6312C115.008 43.3404 115.072 43.0219 115.054 42.7027V38.8615C115.072 38.5485 115.009 38.2361 114.871 37.9512C114.793 37.8414 114.683 37.7547 114.555 37.7011C114.427 37.6474 114.286 37.629 114.147 37.6478C114.008 37.6294 113.866 37.6481 113.738 37.7017C113.609 37.7553 113.499 37.8417 113.419 37.9512C113.279 38.2353 113.215 38.5481 113.234 38.8615V42.7209C113.214 43.0402 113.278 43.3591 113.419 43.6494C113.51 43.7473 113.621 43.8257 113.746 43.8795C113.871 43.9332 114.007 43.961 114.144 43.961C114.281 43.961 114.417 43.9332 114.542 43.8795C114.667 43.8257 114.778 43.7473 114.868 43.6494V43.6312Z" fill="#AFB1B8"/>
<path d="M118.551 36.6106H120.217L121.47 42.3992L122.752 36.6106H124.374L124.537 44.9658H123.339L123.211 39.159L121.973 44.9658H121.012L119.73 39.1378L119.611 44.9658H118.4L118.551 36.6106Z" fill="#AFB1B8"/>
<path d="M126.406 36.6106H129.002C130.498 36.6106 131.245 37.4014 131.245 38.9831C131.245 40.498 130.458 41.2544 128.883 41.2524H127.999V44.9658H126.396L126.406 36.6106ZM128.624 40.1814C128.782 40.2005 128.943 40.1867 129.095 40.1411C129.247 40.0956 129.387 40.0193 129.505 39.9175C129.689 39.6353 129.77 39.3039 129.736 38.974C129.744 38.7191 129.719 38.4642 129.659 38.2155C129.636 38.1324 129.596 38.0545 129.541 37.9863C129.486 37.918 129.417 37.8608 129.339 37.8181C129.116 37.7171 128.87 37.6711 128.624 37.6846H128.002V40.1814H128.624Z" fill="#AFB1B8"/>
<path d="M133.556 36.6106H135.277L137.043 44.9658H135.549L135.2 43.0393H133.665L133.306 44.9658H131.79L133.556 36.6106ZM135.027 42.0715L134.428 38.5644L133.828 42.0715H135.027Z" fill="#AFB1B8"/>
<path d="M138.469 36.6106H139.591L141.738 41.3768V36.6106H143.068V44.9658H142.001L139.841 39.9903V44.9658H138.466L138.469 36.6106Z" fill="#AFB1B8"/>
<path d="M146.184 41.7801L144.398 36.6223H145.902L146.991 39.9354L148.014 36.6223H149.485L147.722 41.7801V44.9658H146.184V41.7801Z" fill="#AFB1B8"/>
<path d="M108.215 48.6189V49.0558H106.907V52.4509H106.359V49.0558H105.045V48.6189H108.215Z" fill="#AFB1B8"/>
<path d="M112.314 52.4512H111.891C111.848 52.4537 111.806 52.4407 111.772 52.4148C111.74 52.3925 111.716 52.362 111.702 52.3268L111.324 51.4166H109.51L109.132 52.3268C109.121 52.3649 109.101 52.4001 109.074 52.43C109.04 52.4554 108.998 52.4683 108.955 52.4664H108.532L110.135 48.6345H110.692L112.314 52.4512ZM109.66 51.0283H111.173L110.532 49.4688C110.485 49.3509 110.445 49.2303 110.414 49.1078C110.391 49.1806 110.372 49.2504 110.353 49.3111L110.295 49.4719L109.66 51.0283Z" fill="#AFB1B8"/>
<path d="M115.077 52.0748C115.177 52.0798 115.278 52.0798 115.378 52.0748C115.465 52.0664 115.55 52.0512 115.634 52.0293C115.713 52.0111 115.79 51.9878 115.865 51.9595C115.936 51.9322 116.006 51.8988 116.08 51.8655V51.0037H115.439C115.423 51.0046 115.407 51.0023 115.392 50.9971C115.377 50.9919 115.364 50.9838 115.352 50.9734C115.342 50.9648 115.333 50.954 115.328 50.9419C115.322 50.9299 115.32 50.9167 115.32 50.9036V50.6093H116.564V52.0779C116.462 52.1466 116.355 52.2075 116.243 52.2599C116.129 52.3133 116.01 52.357 115.887 52.3904C115.756 52.4269 115.622 52.4533 115.487 52.4693C115.331 52.4856 115.175 52.4937 115.019 52.4936C114.743 52.4958 114.468 52.4473 114.211 52.351C113.971 52.2596 113.753 52.1234 113.57 51.9504C113.392 51.7757 113.251 51.5695 113.157 51.3436C113.056 51.0896 113.006 50.8199 113.009 50.5486C113.006 50.2755 113.055 50.0041 113.154 49.7475C113.246 49.5204 113.387 49.3138 113.567 49.1406C113.75 48.9682 113.968 48.833 114.208 48.7431C114.483 48.6454 114.774 48.597 115.067 48.6005C115.216 48.6003 115.365 48.6115 115.513 48.6339C115.643 48.654 115.771 48.6865 115.894 48.731C116.006 48.7709 116.113 48.8217 116.214 48.8827C116.313 48.9426 116.406 49.0095 116.493 49.083L116.339 49.3197C116.327 49.3413 116.309 49.3594 116.287 49.3722C116.265 49.3851 116.24 49.392 116.214 49.3925C116.179 49.3914 116.144 49.3809 116.115 49.3621C116.067 49.3379 116.016 49.3075 115.958 49.2711C115.89 49.2307 115.818 49.1961 115.743 49.1679C115.648 49.1317 115.549 49.1032 115.448 49.083C115.314 49.0596 115.178 49.0484 115.041 49.0496C114.83 49.0474 114.62 49.0834 114.423 49.1558C114.244 49.2235 114.084 49.3271 113.952 49.4592C113.819 49.597 113.717 49.7592 113.654 49.9356C113.51 50.3507 113.51 50.7981 113.654 51.2131C113.724 51.3933 113.833 51.5576 113.974 51.6955C114.106 51.827 114.265 51.9304 114.442 51.999C114.646 52.0652 114.862 52.091 115.077 52.0748V52.0748Z" fill="#AFB1B8"/>
<path d="M120.185 52.014H121.935V52.4509H119.65V48.6189H120.198L120.185 52.014Z" fill="#AFB1B8"/>
<path d="M123.756 52.4509H123.208V48.6189H123.756V52.4509Z" fill="#AFB1B8"/>
<path d="M125.794 48.6371C125.826 48.6547 125.855 48.6785 125.877 48.7069L128.22 51.5955C128.217 51.5501 128.217 51.5045 128.22 51.459C128.22 51.4165 128.22 51.374 128.22 51.3346V48.6038H128.698V52.4512H128.422C128.381 52.4543 128.34 52.447 128.303 52.43C128.27 52.4109 128.241 52.3862 128.217 52.3571L125.877 49.4716C125.877 49.5171 125.877 49.5595 125.877 49.602C125.877 49.6445 125.877 49.684 125.877 49.7204V52.4512H125.419V48.6189H125.704C125.735 48.619 125.766 48.6252 125.794 48.6371V48.6371Z" fill="#AFB1B8"/>
<path d="M132.732 48.6189V49.0406H130.79V50.3059H132.364V50.7124H130.79V52.0202H132.732V52.4419H130.226V48.6189H132.732Z" fill="#AFB1B8"/>
<path d="M75.3035 24.9539L99.6385 31.4953V54.4173L75.3035 47.879V24.9539ZM73.7427 23V48.9925L101.196 56.3743V30.3848L73.7427 23Z" fill="#AFB1B8"/>
<path d="M88.4565 68.4402L61 61.0522V35.0625L88.4565 42.4474V68.4402Z" fill="#AFB1B8"/>
<path d="M74.1978 24.6596L98.2155 31.1189L88.0014 40.7912L63.9806 34.3288L74.1978 24.6596ZM73.7427 23L61 35.0631L88.4565 42.4478L101.196 30.3847L73.7427 23Z" fill="#AFB1B8"/>
<path d="M90.0015 66.978L101.196 56.3774L90.0015 53.3647V66.978Z" fill="#AFB1B8"/>
</svg>
