<svg width="210" height="92" viewBox="0 0 210 92" fill="none" xmlns="http://www.w3.org/2000/svg">
<rect x="0.5" y="0.5" width="209" height="91" rx="3.5" stroke="#AFB1B8"/>
<path d="M89 21L96.3076 27.918H116.692V47.2158L124 54.1338V21H89Z" fill="#AFB1B8"/>
<path d="M83 27.6265V59.8137H117V47.0195L96.5231 27.6344L83 27.6265ZM110.523 55.1055H88.3801V33.4579H89.9453V53.6397H110.523V55.1055Z" fill="#AFB1B8"/>
<path d="M92.791 65.7837L93.6089 64.0991H94.2925L93.1011 66.3452V67.6538H92.481V66.3452L91.2871 64.0991H91.9731L92.791 65.7837ZM96.3018 66.8262H94.9248L94.6367 67.6538H93.9946L95.3374 64.0991H95.8916L97.2368 67.6538H96.5923L96.3018 66.8262ZM95.0981 66.3281H96.1284L95.6133 64.8535L95.0981 66.3281ZM98.7358 66.6943C98.7358 66.5299 98.7806 66.3794 98.8701 66.2427C98.9596 66.1043 99.1362 65.9408 99.3999 65.752C99.2616 65.5778 99.1647 65.4297 99.1094 65.3076C99.0557 65.1855 99.0288 65.0675 99.0288 64.9536C99.0288 64.6753 99.1134 64.4556 99.2827 64.2944C99.452 64.1317 99.6799 64.0503 99.9663 64.0503C100.225 64.0503 100.437 64.1268 100.601 64.2798C100.767 64.4312 100.85 64.6191 100.85 64.8438C100.85 64.9919 100.813 65.1286 100.738 65.2539C100.663 65.3776 100.54 65.5013 100.369 65.625L100.127 65.8008L100.813 66.6113C100.913 66.416 100.962 66.1987 100.962 65.9595H101.478C101.478 66.3973 101.375 66.7562 101.17 67.0361L101.692 67.6538H101.004L100.804 67.417C100.55 67.6074 100.247 67.7026 99.8955 67.7026C99.5439 67.7026 99.2624 67.6099 99.0508 67.4243C98.8408 67.2371 98.7358 66.9938 98.7358 66.6943ZM99.9126 67.229C100.113 67.229 100.3 67.1623 100.474 67.0288L99.6978 66.1133L99.6221 66.167C99.4268 66.3151 99.3291 66.4844 99.3291 66.6748C99.3291 66.8392 99.382 66.9727 99.4878 67.0752C99.5936 67.1777 99.7352 67.229 99.9126 67.229ZM99.5854 64.939C99.5854 65.0757 99.6693 65.2474 99.8369 65.4541L100.108 65.2686L100.184 65.2075C100.285 65.118 100.335 65.0033 100.335 64.8633C100.335 64.7705 100.3 64.6916 100.23 64.6265C100.16 64.5597 100.071 64.5264 99.9639 64.5264C99.8483 64.5264 99.7563 64.5654 99.688 64.6436C99.6196 64.7217 99.5854 64.8201 99.5854 64.939ZM106.043 66.4966C106.007 66.8758 105.867 67.172 105.623 67.3853C105.379 67.5968 105.054 67.7026 104.649 67.7026C104.366 67.7026 104.116 67.6359 103.899 67.5024C103.685 67.3674 103.519 67.1761 103.401 66.9287C103.284 66.6813 103.223 66.394 103.218 66.0669V65.7349C103.218 65.3996 103.278 65.1042 103.396 64.8486C103.515 64.5931 103.685 64.3962 103.907 64.2578C104.13 64.1195 104.387 64.0503 104.678 64.0503C105.07 64.0503 105.386 64.1569 105.625 64.3701C105.865 64.5833 106.004 64.8844 106.043 65.2734H105.428C105.398 65.0179 105.324 64.834 105.203 64.7217C105.084 64.6077 104.909 64.5508 104.678 64.5508C104.41 64.5508 104.203 64.6493 104.058 64.8462C103.915 65.0415 103.842 65.3288 103.838 65.708V66.0229C103.838 66.4071 103.907 66.7 104.043 66.9019C104.182 67.1037 104.384 67.2046 104.649 67.2046C104.891 67.2046 105.074 67.1501 105.196 67.041C105.318 66.932 105.395 66.7505 105.428 66.4966H106.043ZM109.434 65.9692C109.434 66.3175 109.374 66.6235 109.253 66.8872C109.133 67.1493 108.96 67.3511 108.736 67.4927C108.513 67.6326 108.256 67.7026 107.964 67.7026C107.676 67.7026 107.419 67.6326 107.193 67.4927C106.968 67.3511 106.794 67.1501 106.67 66.8896C106.548 66.6292 106.486 66.3289 106.485 65.9888V65.7886C106.485 65.4419 106.546 65.1359 106.668 64.8706C106.792 64.6053 106.965 64.4027 107.188 64.2627C107.413 64.1211 107.67 64.0503 107.959 64.0503C108.249 64.0503 108.506 64.1203 108.729 64.2603C108.953 64.3986 109.126 64.5988 109.249 64.8608C109.371 65.1213 109.432 65.4248 109.434 65.7715V65.9692ZM108.816 65.7837C108.816 65.3898 108.742 65.0879 108.592 64.8779C108.444 64.668 108.233 64.563 107.959 64.563C107.693 64.563 107.483 64.668 107.332 64.8779C107.182 65.0863 107.106 65.3817 107.103 65.7642V65.9692C107.103 66.3599 107.178 66.6618 107.33 66.875C107.483 67.0882 107.694 67.1948 107.964 67.1948C108.238 67.1948 108.448 67.0907 108.594 66.8823C108.742 66.674 108.816 66.3696 108.816 65.9692V65.7837Z" fill="#AFB1B8"/>
</svg>
