<svg width="210" height="92" viewBox="0 0 210 92" fill="none" xmlns="http://www.w3.org/2000/svg">
<rect x="0.5" y="0.5" width="209" height="91" rx="3.5" stroke="#AFB1B8"/>
<path d="M79.4876 61.2778C79.7175 61.5634 79.84 61.9212 79.8336 62.2884C79.8453 62.528 79.8032 62.7671 79.7104 62.988C79.6176 63.209 79.4765 63.4062 79.2975 63.565C78.851 63.9037 78.2977 64.0692 77.7393 64.0313H75V57.6263H77.6832C78.2129 57.5909 78.7383 57.7413 79.1698 58.0518C79.3431 58.1974 79.4803 58.3815 79.5706 58.5895C79.6609 58.7974 79.7019 59.0236 79.6902 59.2502C79.706 59.6035 79.5954 59.9509 79.3786 60.2296C79.1704 60.4841 78.8826 60.6605 78.5621 60.7302C78.9255 60.7968 79.2535 60.9909 79.4876 61.2778V61.2778ZM76.2746 60.3109H77.4215C77.6821 60.3303 77.941 60.2548 78.1507 60.0982C78.2368 60.0198 78.3038 59.9226 78.3465 59.8141C78.3892 59.7056 78.4064 59.5887 78.3969 59.4724C78.405 59.3565 78.3874 59.2403 78.3453 59.1321C78.3033 59.0239 78.2379 58.9264 78.1538 58.8466C77.9378 58.6856 77.6709 58.6088 77.4028 58.6307H76.2746V60.3109ZM78.2629 62.7672C78.3549 62.6869 78.4273 62.5865 78.4743 62.4736C78.5213 62.3607 78.5418 62.2385 78.534 62.1163C78.541 61.9928 78.5197 61.8693 78.4716 61.7553C78.4235 61.6414 78.35 61.5401 78.2567 61.4593C78.0323 61.2922 77.7563 61.2102 77.4776 61.2277H76.2746V62.9893H77.4931C77.7674 63.0052 78.0389 62.9269 78.2629 62.7672V62.7672Z" fill="#AFB1B8"/>
<path d="M84.9724 64.0313L83.4797 61.5281H82.9187V64.0313H81.6348V57.6263H84.0656C84.6783 57.5834 85.284 57.7783 85.7578 58.1708C86.0976 58.5184 86.3025 58.9764 86.3357 59.4624C86.3688 59.9483 86.228 60.4301 85.9385 60.821C85.6386 61.1659 85.229 61.3959 84.7792 61.4718L86.3686 64.0313H84.9724ZM82.9187 60.6552H83.969C84.6982 60.6552 85.0628 60.3318 85.0628 59.6852C85.0703 59.5531 85.0503 59.421 85.0041 59.2971C84.958 59.1732 84.8867 59.0603 84.7948 58.9655C84.5644 58.7731 84.2676 58.6798 83.969 58.7058H82.9063L82.9187 60.6552Z" fill="#AFB1B8"/>
<path d="M91.9905 62.742H89.432L88.9801 64.0311H87.6338L89.9836 57.6981H91.4389L93.7794 64.0311H92.4331L91.9905 62.742ZM91.6477 61.772L90.7128 59.0686L89.7779 61.772H91.6477Z" fill="#AFB1B8"/>
<path d="M100.776 64.0312H99.5013L96.6436 59.6757V64.0312H95.3721V57.6262H96.6436L99.5013 62.0068V57.6262H100.776V64.0312Z" fill="#AFB1B8"/>
<path d="M108.05 62.4981C107.786 62.9817 107.385 63.375 106.897 63.6276C106.342 63.909 105.726 64.0477 105.105 64.0313H102.836V57.6263H105.105C105.725 57.61 106.34 57.7453 106.897 58.0206C107.385 58.2674 107.787 58.6569 108.05 59.1376C108.312 59.6585 108.449 60.2341 108.449 60.8178C108.449 61.4016 108.312 61.9772 108.05 62.4981V62.4981ZM106.591 62.3448C106.955 61.9193 107.155 61.377 107.155 60.8163C107.155 60.2555 106.955 59.7133 106.591 59.2878C106.152 58.9024 105.578 58.7067 104.996 58.7433H104.111V62.8892H104.996C105.578 62.9258 106.152 62.7302 106.591 62.3448Z" fill="#AFB1B8"/>
<path d="M92.7886 22C92.7886 22 109.24 28.236 108.891 37.2599V52.5229C108.891 52.5229 92.452 46.2838 92.7948 37.2599L92.7886 22Z" fill="#AFB1B8"/>
<path d="M123.547 48.9496C126.654 46.8028 130.248 45.4731 134 45.0822V40.3043C129.677 41.977 126.01 45.0101 123.547 48.9496V48.9496Z" fill="#AFB1B8"/>
<path d="M121.681 50.389C124.224 45.2478 128.633 41.2805 134 39.3032V25.5358C134 25.5358 110.571 34.4189 111.066 47.2695V69C111.066 69 112.11 68.6027 113.753 67.858C113.753 67.1633 113.753 66.4625 113.827 65.7584C114.312 59.7926 117.137 54.2643 121.681 50.389V50.389Z" fill="#AFB1B8"/>
<path d="M119.453 58.4617C119.576 56.9546 119.85 55.4639 120.272 54.0123C117.443 57.3589 115.73 61.5117 115.373 65.8867C115.339 66.2997 115.32 66.7127 115.311 67.1383C116.642 66.4968 118.191 65.6958 119.817 64.754C119.402 62.6842 119.279 60.5659 119.453 58.4617V58.4617Z" fill="#AFB1B8"/>
<path d="M120.385 58.54C120.229 60.4437 120.326 62.3599 120.674 64.2378C127.076 60.3923 134.268 54.4504 133.991 47.2695V46.6437C129.417 47.1575 125.139 49.1648 121.812 52.3571C121.033 54.3355 120.552 56.4193 120.385 58.54V58.54Z" fill="#AFB1B8"/>
</svg>
