<svg width="210" height="92" viewBox="0 0 210 92" fill="none" xmlns="http://www.w3.org/2000/svg">
<rect x="0.5" y="0.5" width="209" height="91" rx="3.5" stroke="#AFB1B8"/>
<path d="M90.3457 66.7946C90.3607 66.795 90.3755 66.7982 90.3891 66.8041C90.4028 66.81 90.4152 66.8184 90.4254 66.8289L90.6312 67.0446C90.4714 67.2191 90.274 67.3588 90.0524 67.4539C89.7929 67.5577 89.5133 67.6078 89.2319 67.6009C88.9675 67.6061 88.7049 67.5594 88.4603 67.4637C88.2396 67.3758 88.0414 67.2437 87.879 67.0764C87.7132 66.9029 87.5855 66.6996 87.5034 66.4784C87.4135 66.2318 87.3692 65.9723 87.3723 65.7113C87.3686 65.4486 87.4166 65.1875 87.5137 64.9417C87.6036 64.7191 87.7391 64.5158 87.9124 64.3436C88.0881 64.1749 88.2982 64.0423 88.5297 63.9539C88.7831 63.8604 89.0528 63.8138 89.3245 63.8167C89.5769 63.8108 89.8279 63.8534 90.0627 63.9417C90.2664 64.0259 90.4535 64.1428 90.6157 64.2873L90.4434 64.5177C90.4315 64.5339 90.4167 64.548 90.3997 64.5593C90.3793 64.5726 90.3548 64.5787 90.3302 64.5765C90.3035 64.5747 90.2778 64.5663 90.2556 64.552L90.163 64.4907L90.0344 64.4123C89.9789 64.3832 89.9213 64.3578 89.8621 64.3363C89.7858 64.3103 89.7076 64.2898 89.628 64.275C89.5271 64.2573 89.4246 64.2491 89.3219 64.2505C89.1263 64.2482 88.9322 64.2832 88.7509 64.3534C88.5819 64.4185 88.4294 64.5171 88.3034 64.6427C88.1751 64.7762 88.0763 64.9329 88.0127 65.1034C87.9403 65.2985 87.9046 65.5043 87.9073 65.7113C87.9042 65.9214 87.9399 66.1305 88.0127 66.3289C88.0755 66.498 88.1725 66.6537 88.2982 66.7872C88.416 66.9117 88.5621 67.0089 88.7252 67.0715C88.8931 67.1379 89.0733 67.1712 89.2551 67.1696C89.3601 67.1711 89.465 67.1646 89.5689 67.15C89.7385 67.1302 89.9012 67.0741 90.0447 66.9858C90.1167 66.9405 90.1847 66.8897 90.2479 66.8338C90.2744 66.8098 90.3091 66.7958 90.3457 66.7946V66.7946Z" fill="#AFB1B8"/>
<path d="M96.2871 65.7108C96.2903 65.9709 96.2432 66.2292 96.1482 66.473C96.0644 66.6941 95.9323 66.8958 95.7608 67.0648C95.5892 67.2338 95.382 67.3662 95.1528 67.4533C94.6492 67.6363 94.0925 67.6363 93.589 67.4533C93.3613 67.3648 93.1554 67.2321 92.9845 67.0636C92.8131 66.8916 92.68 66.6882 92.5936 66.4657C92.4083 65.972 92.4083 65.4325 92.5936 64.9388C92.6813 64.7162 92.8141 64.5122 92.9845 64.3384C93.1568 64.1752 93.3626 64.0476 93.589 63.9635C94.0919 63.7772 94.6499 63.7772 95.1528 63.9635C95.3813 64.0519 95.588 64.1846 95.7598 64.3531C95.9292 64.5235 96.0612 64.7243 96.1482 64.9437C96.2435 65.1892 96.2906 65.4492 96.2871 65.7108ZM95.747 65.7108C95.751 65.5028 95.718 65.2956 95.6492 65.0981C95.5916 64.929 95.4979 64.7729 95.374 64.6399C95.2534 64.5139 95.1049 64.4152 94.9393 64.3507C94.5734 64.2167 94.1684 64.2167 93.8024 64.3507C93.6368 64.4152 93.4884 64.5139 93.3678 64.6399C93.2422 64.7722 93.1475 64.9284 93.09 65.0981C92.9591 65.4971 92.9591 65.9246 93.09 66.3235C93.148 66.4931 93.2427 66.6492 93.3678 66.7818C93.4885 66.907 93.637 67.0049 93.8024 67.0685C94.169 67.1991 94.5728 67.1991 94.9393 67.0685C95.1048 67.0049 95.2533 66.907 95.374 66.7818C95.4974 66.6484 95.591 66.4925 95.6492 66.3235C95.7183 66.1261 95.7513 65.9189 95.747 65.7108V65.7108Z" fill="#AFB1B8"/>
<path d="M100.341 66.3532L100.395 66.4904C100.415 66.4414 100.433 66.3973 100.454 66.3532C100.474 66.3071 100.496 66.2621 100.521 66.2184L101.835 63.942C101.861 63.9028 101.884 63.8783 101.91 63.8709C101.945 63.8608 101.981 63.8566 102.018 63.8587H102.406V67.5613H101.946V64.8388C101.946 64.8045 101.946 64.7653 101.946 64.7237C101.943 64.6812 101.943 64.6387 101.946 64.5962L100.624 66.9046C100.607 66.9391 100.58 66.9684 100.546 66.9888C100.513 67.0092 100.473 67.02 100.433 67.0197H100.359C100.319 67.0203 100.279 67.0097 100.246 66.9892C100.212 66.9687 100.185 66.9393 100.168 66.9046L98.8078 64.5815C98.8078 64.6256 98.8078 64.6698 98.8078 64.7139C98.8078 64.758 98.8078 64.7972 98.8078 64.8315V67.5539H98.3628V63.8587H98.7512C98.7877 63.8566 98.8243 63.8608 98.8592 63.8709C98.8911 63.886 98.9165 63.9111 98.9312 63.942L100.274 66.2209C100.3 66.263 100.323 66.3073 100.341 66.3532V66.3532Z" fill="#AFB1B8"/>
<path d="M105.287 66.1692V67.5562H104.772V63.8585H105.92C106.136 63.8546 106.352 63.8818 106.56 63.9394C106.727 63.9843 106.881 64.0629 107.013 64.1697C107.127 64.2699 107.215 64.394 107.27 64.5324C107.331 64.6832 107.36 64.8438 107.357 65.0053C107.36 65.1675 107.327 65.3284 107.262 65.4782C107.2 65.6201 107.105 65.7466 106.985 65.8482C106.853 65.9595 106.697 66.043 106.529 66.0933C106.329 66.1542 106.12 66.1832 105.909 66.179L105.287 66.1692ZM105.287 65.7723H105.909C106.045 65.7739 106.179 65.7549 106.308 65.7159C106.414 65.6818 106.512 65.6277 106.596 65.5566C106.673 65.4888 106.733 65.405 106.771 65.3116C106.813 65.2128 106.834 65.107 106.833 65.0004C106.839 64.8976 106.821 64.7948 106.781 64.6992C106.741 64.6035 106.68 64.5174 106.601 64.4466C106.405 64.3004 106.158 64.2296 105.909 64.2481H105.287V65.7723Z" fill="#AFB1B8"/>
<path d="M112.201 67.5612H111.794C111.754 67.5626 111.714 67.5505 111.681 67.5268C111.652 67.5038 111.629 67.4744 111.614 67.4411L111.264 66.5466H109.508L109.145 67.4411C109.132 67.4738 109.11 67.5025 109.081 67.5244C109.048 67.5495 109.007 67.5625 108.965 67.5612H108.559L110.102 63.8582H110.637L112.201 67.5612ZM109.654 66.1863H111.105L110.493 64.6791C110.446 64.5658 110.407 64.4495 110.377 64.3311L110.318 64.5247C110.3 64.5836 110.279 64.6375 110.261 64.6816L109.654 66.1863Z" fill="#AFB1B8"/>
<path d="M114.423 63.8754C114.454 63.8915 114.481 63.9141 114.501 63.9416L116.751 66.7329C116.751 66.6887 116.751 66.6446 116.751 66.603C116.751 66.5613 116.751 66.5197 116.751 66.4804V63.8582H117.212V67.5612H116.954C116.918 67.5622 116.882 67.5547 116.849 67.5391C116.817 67.5215 116.789 67.4982 116.767 67.4705L114.519 64.6817C114.521 64.7241 114.521 64.7666 114.519 64.8091C114.519 64.8508 114.519 64.8875 114.519 64.9218V67.5612H114.058V63.8582H114.331C114.363 63.8574 114.394 63.8632 114.423 63.8754V63.8754Z" fill="#AFB1B8"/>
<path d="M121.003 66.0884V67.5588H120.488V66.0884L119.066 63.8584H119.526C119.566 63.8561 119.605 63.8674 119.637 63.8902C119.665 63.914 119.688 63.9422 119.706 63.9735L120.596 65.4121C120.632 65.4733 120.663 65.5297 120.689 65.5836C120.715 65.6375 120.735 65.689 120.753 65.7405L120.82 65.5812C120.845 65.5229 120.874 65.4664 120.908 65.4121L121.785 63.9637C121.803 63.9348 121.826 63.9084 121.852 63.8853C121.882 63.8599 121.922 63.8467 121.962 63.8486H122.428L121.003 66.0884Z" fill="#AFB1B8"/>
<path d="M100.086 57.6443C100.31 57.6712 100.536 57.6933 100.765 57.7129C104.236 56.2337 107.172 53.8127 109.206 50.7526C111.24 47.6924 112.283 44.1289 112.203 40.5073L108.379 36.8633C109.156 40.7191 108.792 44.705 107.328 48.3751C105.863 52.0452 103.356 55.2546 100.086 57.6443V57.6443Z" fill="#AFB1B8"/>
<path d="M98.7202 57.4748L98.8231 57.4944C102.317 55.1132 104.981 51.788 106.471 47.9488C107.96 44.1097 108.206 39.9331 107.177 35.9592L101.73 30.769C103.933 35.0353 104.82 39.8098 104.287 44.5374C103.755 49.265 101.824 53.7514 98.7202 57.4748V57.4748Z" fill="#AFB1B8"/>
<path d="M117.196 44.7861C116.27 48.7654 114.023 52.3541 110.786 55.0196C109.841 55.8023 108.821 56.4996 107.741 57.1025C110.376 56.3646 112.798 55.0598 114.821 53.289C116.843 51.5181 118.412 49.3284 119.405 46.8887L117.196 44.7861Z" fill="#AFB1B8"/>
<path d="M116.329 44.2002L113.183 41.2031C113.123 44.6201 112.104 47.9594 110.231 50.8739C108.358 53.7885 105.699 56.1718 102.532 57.7764H102.548C103.253 57.7761 103.959 57.736 104.659 57.6563C107.619 56.5053 110.234 54.6742 112.27 52.3262C114.306 49.9782 115.701 47.1865 116.329 44.2002V44.2002Z" fill="#AFB1B8"/>
<path d="M99.1757 28.5803L95.4229 25C92.0681 26.2351 89.1828 28.4064 87.1446 31.2297C85.1065 34.053 84.0105 37.3968 84 40.8234V40.8234C84.0126 44.6097 85.3502 48.2838 87.8012 51.2643C90.2521 54.2448 93.6764 56.3614 97.5321 57.2791C100.974 53.2838 102.989 48.347 103.285 43.186C103.58 38.025 102.141 32.9086 99.1757 28.5803V28.5803Z" fill="#AFB1B8"/>
<path d="M125 43.649C124.987 39.1568 123.108 34.8522 119.773 31.6757C116.439 28.4992 111.921 26.709 107.206 26.6961V26.6961C105.027 26.6939 102.867 27.077 100.835 27.8258L123.812 49.7166C124.599 47.7815 125.002 45.7241 125 43.649V43.649Z" fill="#AFB1B8"/>
</svg>
