<svg width="210" height="92" viewBox="0 0 210 92" fill="none" xmlns="http://www.w3.org/2000/svg">
<rect x="0.5" y="0.5" width="209" height="91" rx="3.5" stroke="#2196F3"/>
<path d="M77.4022 37.8306H77.3995C75.1372 37.8306 73.3032 39.6177 73.3032 41.8223V41.8249C73.3032 44.0295 75.1372 45.8167 77.3995 45.8167H77.4022C79.6645 45.8167 81.4985 44.0295 81.4985 41.8249V41.8223C81.4985 39.6177 79.6645 37.8306 77.4022 37.8306Z" fill="#2196F3"/>
<path d="M107.637 36.5545C107.63 33.4924 106.38 30.5575 104.158 28.3921C101.936 26.2266 98.925 25.007 95.7828 25V25C92.6397 25.0056 89.6269 26.2246 87.4041 28.3902C85.1814 30.5558 83.9298 33.4915 83.9233 36.5545V36.5545V53.4402C83.9233 53.4402 107.634 50.8667 107.637 36.5571V36.5545Z" fill="#2196F3"/>
<path d="M65 58.9823C65.0057 61.1129 65.8766 63.1547 67.4223 64.6615C68.968 66.1683 71.0629 67.0177 73.2492 67.0239V67.0239C75.4351 67.0177 77.5296 66.1687 79.0752 64.6625C80.6209 63.1562 81.492 61.1151 81.4985 58.9849V58.9849V47.2356C81.4985 47.2356 65 49.0276 65 58.9823ZM73.2492 61.0874C72.822 61.0874 72.4043 60.964 72.0491 60.7326C71.6938 60.5013 71.417 60.1726 71.2535 59.7879C71.09 59.4032 71.0472 58.98 71.1305 58.5716C71.2139 58.1632 71.4196 57.7881 71.7217 57.4937C72.0239 57.1993 72.4088 56.9988 72.8278 56.9176C73.2468 56.8364 73.6812 56.8781 74.0759 57.0374C74.4706 57.1967 74.808 57.4665 75.0454 57.8127C75.2827 58.1589 75.4094 58.5659 75.4094 58.9823C75.4105 59.2594 75.3554 59.534 75.2473 59.7903C75.1392 60.0466 74.9803 60.2796 74.7796 60.476C74.5789 60.6723 74.3404 60.828 74.0778 60.9343C73.8152 61.0406 73.5336 61.0953 73.2492 61.0953V61.0874Z" fill="#2196F3"/>
<path d="M90.0894 59.7812H88.4019V61.5244H87.5229V57.2588H90.3003V57.9707H88.4019V59.0723H90.0894V59.7812ZM94.314 59.4883C94.314 59.9082 94.2397 60.2764 94.0913 60.5928C93.9429 60.9092 93.73 61.1533 93.4526 61.3252C93.1772 61.4971 92.8608 61.583 92.5034 61.583C92.1499 61.583 91.8345 61.498 91.5571 61.3281C91.2798 61.1582 91.0649 60.916 90.9126 60.6016C90.7603 60.2852 90.6831 59.9219 90.6812 59.5117V59.3008C90.6812 58.8809 90.7563 58.5117 90.9067 58.1934C91.0591 57.873 91.2729 57.6279 91.5483 57.458C91.8257 57.2861 92.1421 57.2002 92.4976 57.2002C92.853 57.2002 93.1685 57.2861 93.4438 57.458C93.7212 57.6279 93.9351 57.873 94.0854 58.1934C94.2378 58.5117 94.314 58.8799 94.314 59.2979V59.4883ZM93.4233 59.2949C93.4233 58.8477 93.3433 58.5078 93.1831 58.2754C93.0229 58.043 92.7944 57.9268 92.4976 57.9268C92.2026 57.9268 91.9751 58.042 91.8149 58.2725C91.6548 58.501 91.5737 58.8369 91.5718 59.2803V59.4883C91.5718 59.9238 91.6519 60.2617 91.812 60.502C91.9722 60.7422 92.2026 60.8623 92.5034 60.8623C92.7983 60.8623 93.0249 60.7471 93.1831 60.5166C93.3413 60.2842 93.4214 59.9463 93.4233 59.5029V59.2949ZM97.1646 60.4053C97.1646 60.2393 97.106 60.1123 96.9888 60.0244C96.8716 59.9346 96.6606 59.8408 96.356 59.7432C96.0513 59.6436 95.8101 59.5459 95.6323 59.4502C95.1479 59.1885 94.9058 58.8359 94.9058 58.3926C94.9058 58.1621 94.9702 57.957 95.0991 57.7773C95.23 57.5957 95.4165 57.4541 95.6587 57.3525C95.9028 57.251 96.1763 57.2002 96.479 57.2002C96.7837 57.2002 97.0552 57.2559 97.2935 57.3672C97.5317 57.4766 97.7163 57.6318 97.8472 57.833C97.98 58.0342 98.0464 58.2627 98.0464 58.5186H97.1675C97.1675 58.3232 97.106 58.1719 96.9829 58.0645C96.8599 57.9551 96.687 57.9004 96.4644 57.9004C96.2495 57.9004 96.0825 57.9463 95.9634 58.0381C95.8442 58.1279 95.7847 58.2471 95.7847 58.3955C95.7847 58.5342 95.854 58.6504 95.9927 58.7441C96.1333 58.8379 96.3394 58.9258 96.6108 59.0078C97.1108 59.1582 97.4751 59.3447 97.7036 59.5674C97.9321 59.79 98.0464 60.0674 98.0464 60.3994C98.0464 60.7686 97.9067 61.0586 97.6274 61.2695C97.3481 61.4785 96.9722 61.583 96.4995 61.583C96.1714 61.583 95.8726 61.5234 95.603 61.4043C95.3335 61.2832 95.1274 61.1182 94.9849 60.9092C94.8442 60.7002 94.7739 60.458 94.7739 60.1826H95.6558C95.6558 60.6533 95.937 60.8887 96.4995 60.8887C96.7085 60.8887 96.8716 60.8467 96.9888 60.7627C97.106 60.6768 97.1646 60.5576 97.1646 60.4053ZM101.855 57.9707H100.548V61.5244H99.6694V57.9707H98.3804V57.2588H101.855V57.9707ZM104.925 59.6758H103.238V60.8184H105.218V61.5244H102.359V57.2588H105.212V57.9707H103.238V58.9873H104.925V59.6758ZM107.313 59.9629H106.613V61.5244H105.734V57.2588H107.319C107.823 57.2588 108.211 57.3711 108.485 57.5957C108.758 57.8203 108.895 58.1377 108.895 58.5479C108.895 58.8389 108.832 59.082 108.705 59.2773C108.58 59.4707 108.389 59.625 108.133 59.7402L109.056 61.4834V61.5244H108.113L107.313 59.9629ZM106.613 59.251H107.322C107.542 59.251 107.713 59.1953 107.834 59.084C107.956 58.9707 108.016 58.8154 108.016 58.6182C108.016 58.417 107.958 58.2588 107.843 58.1436C107.73 58.0283 107.555 57.9707 107.319 57.9707H106.613V59.251ZM111.939 60.0215V61.5244H111.06V57.2588H112.724C113.044 57.2588 113.326 57.3174 113.568 57.4346C113.812 57.5518 114 57.7188 114.13 57.9355C114.261 58.1504 114.327 58.3955 114.327 58.6709C114.327 59.0889 114.183 59.4189 113.896 59.6611C113.611 59.9014 113.215 60.0215 112.709 60.0215H111.939ZM111.939 59.3096H112.724C112.957 59.3096 113.133 59.2549 113.254 59.1455C113.377 59.0361 113.439 58.8799 113.439 58.6768C113.439 58.4678 113.377 58.2988 113.254 58.1699C113.131 58.041 112.961 57.9746 112.745 57.9707H111.939V59.3096ZM117.5 59.6758H115.812V60.8184H117.792V61.5244H114.933V57.2588H117.787V57.9707H115.812V58.9873H117.5V59.6758ZM121.578 57.9707H120.271V61.5244H119.392V57.9707H118.103V57.2588H121.578V57.9707ZM124.648 59.6758H122.96V60.8184H124.941V61.5244H122.082V57.2588H124.935V57.9707H122.96V58.9873H124.648V59.6758ZM127.036 59.9629H126.335V61.5244H125.457V57.2588H127.042C127.545 57.2588 127.934 57.3711 128.208 57.5957C128.481 57.8203 128.618 58.1377 128.618 58.5479C128.618 58.8389 128.554 59.082 128.427 59.2773C128.302 59.4707 128.112 59.625 127.856 59.7402L128.779 61.4834V61.5244H127.835L127.036 59.9629ZM126.335 59.251H127.044C127.265 59.251 127.436 59.1953 127.557 59.084C127.678 58.9707 127.739 58.8154 127.739 58.6182C127.739 58.417 127.681 58.2588 127.566 58.1436C127.453 58.0283 127.278 57.9707 127.042 57.9707H126.335V59.251ZM131.5 60.4053C131.5 60.2393 131.442 60.1123 131.325 60.0244C131.208 59.9346 130.997 59.8408 130.692 59.7432C130.387 59.6436 130.146 59.5459 129.968 59.4502C129.484 59.1885 129.242 58.8359 129.242 58.3926C129.242 58.1621 129.306 57.957 129.435 57.7773C129.566 57.5957 129.752 57.4541 129.995 57.3525C130.239 57.251 130.512 57.2002 130.815 57.2002C131.12 57.2002 131.391 57.2559 131.629 57.3672C131.868 57.4766 132.052 57.6318 132.183 57.833C132.316 58.0342 132.382 58.2627 132.382 58.5186H131.503C131.503 58.3232 131.442 58.1719 131.319 58.0645C131.196 57.9551 131.023 57.9004 130.8 57.9004C130.585 57.9004 130.418 57.9463 130.299 58.0381C130.18 58.1279 130.121 58.2471 130.121 58.3955C130.121 58.5342 130.19 58.6504 130.329 58.7441C130.469 58.8379 130.675 58.9258 130.947 59.0078C131.447 59.1582 131.811 59.3447 132.04 59.5674C132.268 59.79 132.382 60.0674 132.382 60.3994C132.382 60.7686 132.243 61.0586 131.963 61.2695C131.684 61.4785 131.308 61.583 130.835 61.583C130.507 61.583 130.208 61.5234 129.939 61.4043C129.669 61.2832 129.463 61.1182 129.321 60.9092C129.18 60.7002 129.11 60.458 129.11 60.1826H129.992C129.992 60.6533 130.273 60.8887 130.835 60.8887C131.044 60.8887 131.208 60.8467 131.325 60.7627C131.442 60.6768 131.5 60.5576 131.5 60.4053Z" fill="#2196F3"/>
</svg>
